<svg width="206" height="162" viewBox="0 0 206 162" fill="none" xmlns="http://www.w3.org/2000/svg">
<path d="M168.5 82.3062L168.066 83.4783C168.654 83.6961 169.312 83.4447 169.605 82.8905C169.898 82.3364 169.735 81.6508 169.224 81.2875L168.5 82.3062ZM46 127.806L44.7972 128.146C44.8114 128.196 44.8286 128.245 44.8488 128.293L46 127.806ZM69 140.806L69.9185 141.654C70.0873 141.471 70.1976 141.242 70.2355 140.996L69 140.806ZM43 127.806L42.9773 129.056C42.9849 129.056 42.9924 129.056 43 129.056V127.806ZM3.81975 160.718C4.04713 161.37 4.75988 161.714 5.41172 161.486L16.034 157.781C16.6858 157.554 17.0299 156.841 16.8025 156.189C16.5751 155.537 15.8624 155.193 15.2105 155.42L5.76854 158.714L2.47481 149.272C2.24743 148.62 1.53468 148.276 0.882848 148.504C0.231014 148.731 -0.113071 149.444 0.114313 150.096L3.81975 160.718ZM8.1606 125.77C9.69303 121.939 15.4848 114.549 26.3292 116.045L26.6708 113.568C14.3152 111.864 7.64031 120.34 5.8394 124.842L8.1606 125.77ZM100.293 1.63065C104.548 17.4603 122.584 51.1886 167.776 83.3248L169.224 81.2875C124.416 49.4237 106.785 16.152 102.707 0.981651L100.293 1.63065ZM168.934 81.134C143.471 71.7001 106.81 62.4849 79.3288 66.0038C65.5722 67.7653 53.8783 72.7509 47.1666 82.7583C40.4513 92.7712 38.9485 107.474 44.7972 128.146L47.2028 127.466C41.4515 107.138 43.1071 93.2995 49.2428 84.1508C55.3822 74.9969 66.232 70.2012 79.6463 68.4835C106.507 65.0441 142.696 74.0789 168.066 83.4783L168.934 81.134ZM44.8488 128.293C44.8568 128.312 44.8649 128.331 44.873 128.35L47.174 127.373C47.1665 127.355 47.1589 127.337 47.1512 127.319L44.8488 128.293ZM44.873 128.35C46.7469 132.761 50.1906 138.8 54.4949 142.433C56.656 144.258 59.1505 145.573 61.86 145.631C64.6175 145.69 67.3443 144.443 69.9185 141.654L68.0815 139.958C65.8659 142.359 63.7863 143.172 61.9134 143.132C59.9925 143.091 58.0325 142.148 56.1075 140.523C52.2395 137.258 48.9848 131.636 47.174 127.373L44.873 128.35ZM70.2355 140.996C70.6303 138.43 69.5956 134.95 65.9326 132.08C62.2934 129.229 56.094 126.99 46.0706 126.613L45.9764 129.111C55.7176 129.478 61.3242 131.646 64.3909 134.048C67.434 136.432 68.0052 139.052 67.7645 140.616L70.2355 140.996ZM46.0706 126.613C45.0852 126.575 44.0621 126.556 43 126.556V129.056C44.032 129.056 45.0236 129.075 45.9764 129.111L46.0706 126.613ZM43.0227 126.556C38.2351 126.469 31.9666 127.391 25.1064 132.087C18.2696 136.767 10.937 145.133 3.87431 159.763L6.12569 160.85C13.063 146.479 20.1471 138.512 26.5186 134.15C32.8668 129.805 38.5982 128.976 42.9773 129.056L43.0227 126.556ZM170.218 50.0872C171.16 46.004 175.039 38.2942 181.259 29.7943C187.45 21.3328 195.856 12.2325 205.717 5.33019L204.283 3.28211C194.144 10.3798 185.55 19.6962 179.241 28.318C172.961 36.9015 168.84 44.9416 167.782 49.5251L170.218 50.0872ZM185.171 61.8607C186.926 60.7438 190.036 59.1139 193.576 57.915C197.136 56.7092 200.99 55.9883 204.294 56.5391L204.706 54.0731C200.81 53.4239 196.497 54.2863 192.774 55.5471C189.031 56.8149 185.741 58.535 183.829 59.7515L185.171 61.8607Z" fill="#02021E"/>
</svg>
